<svg width="20" height="20" viewBox="0 0 20 20" fill="none" xmlns="http://www.w3.org/2000/svg">
<path d="M2.5 7.59176V12.4001C2.5 14.1667 2.5 14.1667 4.16667 15.2917L8.75 17.9417C9.44167 18.3417 10.5667 18.3417 11.25 17.9417L15.8333 15.2917C17.5 14.1667 17.5 14.1667 17.5 12.4084V7.59176C17.5 5.83342 17.5 5.83342 15.8333 4.70842L11.25 2.05842C10.5667 1.65842 9.44167 1.65842 8.75 2.05842L4.16667 4.70842C2.5 5.83342 2.5 5.83342 2.5 7.59176Z" stroke="black" stroke-width="2" stroke-linecap="round" stroke-linejoin="round"/>
<path d="M10 12.5C11.3807 12.5 12.5 11.3807 12.5 10C12.5 8.61925 11.3807 7.5 10 7.5C8.61925 7.5 7.5 8.61925 7.5 10C7.5 11.3807 8.61925 12.5 10 12.5Z" stroke="black" stroke-width="2" stroke-linecap="round" stroke-linejoin="round"/>
</svg>
