<svg width="20" height="20" viewBox="0 0 20 20" fill="none" xmlns="http://www.w3.org/2000/svg">
<g clip-path="url(#clip0_109_242)">
<path d="M19.7902 18.0566C19.673 17.8809 16.8412 13.75 9.99961 13.75C3.15992 13.75 0.326793 17.8809 0.209606 18.0566C-0.172582 18.6316 -0.0175819 19.4066 0.556168 19.79C1.12992 20.1722 1.90617 20.0172 2.28961 19.4434C2.31148 19.4116 4.48336 16.25 9.99961 16.25C15.4421 16.25 17.6246 19.3213 17.7102 19.4434C17.9518 19.8047 18.3474 20 18.7527 20C18.9896 20 19.2312 19.9316 19.4437 19.79C20.0174 19.4069 20.1737 18.6316 19.7902 18.0566Z" fill="black"/>
<path d="M9.99951 12.5C12.7608 12.5 14.9995 10.2625 14.9995 7.5V5C14.9995 2.2375 12.7608 0 9.99951 0C7.23826 0 4.99951 2.2375 4.99951 5V7.5C4.99951 10.2625 7.23826 12.5 9.99951 12.5ZM7.49951 5C7.49951 3.61937 8.62014 2.5 9.99951 2.5C11.3814 2.5 12.4995 3.61937 12.4995 5V7.5C12.4995 8.88062 11.3814 10 9.99951 10C8.62014 10 7.49951 8.88062 7.49951 7.5V5Z" fill="black"/>
</g>
<defs>
<clipPath id="clip0_109_242">
<rect width="20" height="20" fill="white"/>
</clipPath>
</defs>
</svg>
