<svg width="31" height="30" viewBox="0 0 31 30" fill="none" xmlns="http://www.w3.org/2000/svg">
<path d="M11.75 2.5H5.5C4.11929 2.5 3 3.61929 3 5V13.75C3 15.1307 4.11929 16.25 5.5 16.25H11.75C13.1307 16.25 14.25 15.1307 14.25 13.75V5C14.25 3.61929 13.1307 2.5 11.75 2.5Z" fill="black"/>
<path d="M25.5 2.5H19.25C17.8693 2.5 16.75 3.61929 16.75 5V8.75C16.75 10.1307 17.8693 11.25 19.25 11.25H25.5C26.8807 11.25 28 10.1307 28 8.75V5C28 3.61929 26.8807 2.5 25.5 2.5Z" fill="black"/>
<path d="M11.75 18.75H5.5C4.11929 18.75 3 19.8693 3 21.25V25C3 26.3807 4.11929 27.5 5.5 27.5H11.75C13.1307 27.5 14.25 26.3807 14.25 25V21.25C14.25 19.8693 13.1307 18.75 11.75 18.75Z" fill="black"/>
<path d="M25.5 13.75H19.25C17.8693 13.75 16.75 14.8693 16.75 16.25V25C16.75 26.3807 17.8693 27.5 19.25 27.5H25.5C26.8807 27.5 28 26.3807 28 25V16.25C28 14.8693 26.8807 13.75 25.5 13.75Z" fill="black"/>
</svg>
